{"title":"Three Way (2004) DVDRip","uid":6259740,"size":736251904,"categoryP":"video","categoryS":"movies","magnet":"?xt=urn:btih:3bd1b589eed11339adb96cf199833ff56039917f&amp;dn=Three+Way+%282004%29+DVDRip&amp;tr=udp%3A%2F%2Ftracker.openbittorrent.com%3A80&amp;tr=udp%3A%2F%2Fopen.demonii.com%3A1337&amp;tr=udp%3A%2F%2Ftracker.coppersurfer.tk%3A6969&amp;tr=udp%3A%2F%2Fexodus.desync.com%3A6969","seeders":1,"leechers":0,"uploader":"PirateerG","files":-1,"time":1300707822,"description":"Three Way (2004) DVDRip (with fixed hebrew subs)\n\nDirector: Scott Ziehl\nWriters: Russell P. Marleau (screenplay), Gil Brewer (novel)\nStars: Dominic Purcell, Joy Bryant and Ali Larter \n\n\nOn IMDb there's a review of this movie that says: &quot;... For all this, there's an undoubtedly trashy appeal about the whole thing that keeps you watching even though you know it's rubbish.&quot;\n\n\nDetails:\n\nGeneral\nComplete name                    : Three Way (2004) DVDRip XviD HebSub.avi\nFormat                           : AVI\nFormat/Info                      : Audio Video Interleave\nFile size                        : 702 MiB\nDuration                         : 1h 28mn\nOverall bit rate                 : 1 113 Kbps\nWriting application              : VirtualDubMod 1.5.10.2 (build 2542/release)\nWriting library                  : VirtualDubMod build 2542/release\n\nVideo\nID                               : 0\nFormat                           : MPEG-4 Visual\nFormat profile                   : Simple@L3\nFormat settings, BVOP            : No\nFormat settings, QPel            : No\nFormat settings, GMC             : No warppoints\nFormat settings, Matrix          : Default (H.263)\nCodec ID                         : XVID\nCodec ID/Hint                    : XviD\nDuration                         : 1h 28mn\nBit rate                         : 945 Kbps\nWidth                            : 592 pixels\nHeight                           : 320 pixels\nDisplay aspect ratio             : 1.850\nFrame rate                       : 23.976 fps\nColor space                      : YUV\nChroma subsampling               : 4:2:0\nBit depth                        : 8 bits\nScan type                        : Progressive\nCompression mode                 : Lossy\nBits/(Pixel*Frame)               : 0.208\nStream size                      : 597 MiB (85%)\nWriting library                  : XviD 1.2.1 (UTC 2008-12-04)\n\nAudio\nID                               : 1\nFormat                           : MPEG Audio\nFormat version                   : Version 1\nFormat profile                   : Layer 3\nMode                             : Joint stereo\nCodec ID                         : 55\nCodec ID/Hint                    : MP3\nDuration                         : 1h 28mn\nBit rate mode                    : Variable\nBit rate                         : 155 Kbps\nMinimum bit rate                 : 128 Kbps\nChannel(s)                       : 2 channels\nSampling rate                    : 48.0 KHz\nCompression mode                 : Lossy\nStream size                      : 97.5 MiB (14%)\nAlignment                        : Aligned on interleaves\nInterleave, duration             : 24 ms (0.58 video frame)\nInterleave, preload duration     : 417 ms\nWriting library                  : LAME3.90.\nEncoding settings                : -m j -V 5 -q 2 -lowpass 18 --vbr-new -b 128\n","torrent":{"xt":"urn:btih:3bd1b589eed11339adb96cf199833ff56039917f","amp;dn":"Three+Way+%282004%29+DVDRip","amp;tr":["udp%3A%2F%2Ftracker.openbittorrent.com%3A80","udp%3A%2F%2Fopen.demonii.com%3A1337","udp%3A%2F%2Ftracker.coppersurfer.tk%3A6969","udp%3A%2F%2Fexodus.desync.com%3A6969"],"infoHash":"3bd1b589eed11339adb96cf199833ff56039917f","infoHashBuffer":{"type":"Buffer","data":[59,209,181,137,238,209,19,57,173,185,108,241,153,131,63,245,96,57,145,127]},"announce":[],"urlList":[]}}